<svg width="17" height="9" viewBox="0 0 17 9" fill="none" xmlns="http://www.w3.org/2000/svg">
<path d="M8.78104 8.78104L16.281 1.28104C16.3507 1.21136 16.406 1.12863 16.4437 1.03759C16.4814 0.946545 16.5008 0.848963 16.5008 0.750417C16.5008 0.651871 16.4814 0.554289 16.4437 0.463245C16.406 0.3722 16.3507 0.289474 16.281 0.219792C16.2114 0.150109 16.1286 0.0948337 16.0376 0.0571218C15.9465 0.0194098 15.849 0 15.7504 0C15.6519 0 15.5543 0.0194098 15.4632 0.0571218C15.3722 0.0948337 15.2895 0.150109 15.2198 0.219792L8.25042 7.1901L1.28104 0.219792C1.14031 0.0790612 0.94944 -1.48284e-09 0.750417 0C0.551394 1.48284e-09 0.360523 0.0790612 0.219792 0.219792C0.0790615 0.360522 1.48284e-09 0.551394 0 0.750417C-1.48284e-09 0.94944 0.0790615 1.14031 0.219792 1.28104L7.71979 8.78104C7.78945 8.85077 7.87216 8.90609 7.96321 8.94384C8.05426 8.98158 8.15186 9.00101 8.25042 9.00101C8.34898 9.00101 8.44657 8.98158 8.53762 8.94384C8.62867 8.90609 8.71139 8.85077 8.78104 8.78104Z" fill="white"/>
</svg>
